<mxfile host="app.diagrams.net" agent="Mozilla/5.0 (Windows NT 10.0; Win64; x64) AppleWebKit/537.36 (KHTML, like Gecko) Chrome/138.0.0.0 Safari/537.36" version="24.8.4">
  <diagram name="Page-1" id="XpBiJVX6laOag9ZCDTkH">
    <mxGraphModel dx="3274" dy="1684" grid="1" gridSize="10" guides="1" tooltips="1" connect="1" arrows="1" fold="1" page="1" pageScale="1" pageWidth="850" pageHeight="1100" math="0" shadow="0">
      <root>
        <mxCell id="0" />
        <mxCell id="1" parent="0" />
        <mxCell id="3zkTELs3RWdH-sz4RV-8-1" value="bilibili event dispatch" style="swimlane;whiteSpace=wrap;html=1;startSize=50;spacing=2;fontSize=26;" vertex="1" parent="1">
          <mxGeometry x="-850" y="490" width="470" height="330" as="geometry" />
        </mxCell>
        <mxCell id="3zkTELs3RWdH-sz4RV-8-2" value="Retreive Credential" style="text;html=1;align=center;verticalAlign=middle;resizable=0;points=[];autosize=1;strokeColor=none;fillColor=none;spacing=2;fontSize=26;" vertex="1" parent="3zkTELs3RWdH-sz4RV-8-1">
          <mxGeometry x="110" y="70" width="250" height="40" as="geometry" />
        </mxCell>
        <mxCell id="3zkTELs3RWdH-sz4RV-8-3" value="Register event listeners" style="text;html=1;align=center;verticalAlign=middle;resizable=0;points=[];autosize=1;strokeColor=none;fillColor=none;spacing=2;fontSize=26;" vertex="1" parent="3zkTELs3RWdH-sz4RV-8-1">
          <mxGeometry x="85" y="130" width="300" height="40" as="geometry" />
        </mxCell>
        <mxCell id="3zkTELs3RWdH-sz4RV-8-5" value="&lt;pre style=&quot;font-size: 26px;&quot;&gt;Dispatch requests&lt;/pre&gt;" style="text;html=1;align=center;verticalAlign=middle;resizable=0;points=[];autosize=1;strokeColor=none;fillColor=none;spacing=2;fontSize=26;" vertex="1" parent="3zkTELs3RWdH-sz4RV-8-1">
          <mxGeometry x="100" y="210" width="270" height="100" as="geometry" />
        </mxCell>
        <mxCell id="3zkTELs3RWdH-sz4RV-8-4" value="Main" style="whiteSpace=wrap;html=1;spacing=2;fontSize=26;" vertex="1" parent="1">
          <mxGeometry x="-485" y="130" width="120" height="60" as="geometry" />
        </mxCell>
        <mxCell id="3zkTELs3RWdH-sz4RV-8-6" value="" style="endArrow=none;dashed=1;html=1;dashPattern=1 3;strokeWidth=2;rounded=0;" edge="1" parent="1">
          <mxGeometry width="50" height="50" relative="1" as="geometry">
            <mxPoint y="1090" as="sourcePoint" />
            <mxPoint y="30" as="targetPoint" />
          </mxGeometry>
        </mxCell>
        <mxCell id="3zkTELs3RWdH-sz4RV-8-9" value="&lt;h1&gt;&lt;font style=&quot;font-size: 64px;&quot;&gt;ASYNC&lt;/font&gt;&lt;/h1&gt;" style="text;html=1;align=center;verticalAlign=middle;resizable=0;points=[];autosize=1;strokeColor=none;fillColor=none;" vertex="1" parent="1">
          <mxGeometry x="-635" y="13" width="250" height="120" as="geometry" />
        </mxCell>
        <mxCell id="3zkTELs3RWdH-sz4RV-8-10" value="&lt;h1&gt;&lt;font style=&quot;font-size: 64px;&quot;&gt;SYNC&lt;/font&gt;&lt;/h1&gt;" style="text;html=1;align=center;verticalAlign=middle;resizable=0;points=[];autosize=1;strokeColor=none;fillColor=none;" vertex="1" parent="1">
          <mxGeometry x="325" y="13" width="200" height="120" as="geometry" />
        </mxCell>
        <mxCell id="3zkTELs3RWdH-sz4RV-8-11" value="&lt;font style=&quot;font-size: 35px;&quot;&gt;Config loader&lt;/font&gt;" style="swimlane;whiteSpace=wrap;html=1;startSize=60;" vertex="1" parent="1">
          <mxGeometry x="-1040" y="190" width="330" height="200" as="geometry" />
        </mxCell>
        <mxCell id="3zkTELs3RWdH-sz4RV-8-12" value="Load user Congig" style="text;html=1;align=center;verticalAlign=middle;resizable=0;points=[];autosize=1;strokeColor=none;fillColor=none;" vertex="1" parent="3zkTELs3RWdH-sz4RV-8-11">
          <mxGeometry x="20" y="140" width="120" height="30" as="geometry" />
        </mxCell>
      </root>
    </mxGraphModel>
  </diagram>
</mxfile>
